<svg xmlns="http://www.w3.org/2000/svg" viewBox="0 0 200 200">
  <defs>
    <radialGradient id="bg-female" cx="50%" cy="50%" r="50%">
      <stop offset="0%" stop-color="#2a2018"/>
      <stop offset="100%" stop-color="#0f0a08"/>
    </radialGradient>
    <linearGradient id="skin-female" x1="0%" y1="0%" x2="0%" y2="100%">
      <stop offset="0%" stop-color="#f5d0b8"/>
      <stop offset="100%" stop-color="#e0b098"/>
    </linearGradient>
    <linearGradient id="scarf-female" x1="0%" y1="0%" x2="100%" y2="100%">
      <stop offset="0%" stop-color="#7a9a8a"/>
      <stop offset="100%" stop-color="#4a6356"/>
    </linearGradient>
  </defs>
  <circle cx="100" cy="100" r="96" fill="url(#bg-female)"/>
  <circle cx="100" cy="110" r="58" fill="url(#skin-female)"/>
  <path d="M40 85 Q100 40 160 85 L160 115 Q100 80 40 115 Z" fill="url(#scarf-female)"/>
  <ellipse cx="100" cy="170" rx="50" ry="28" fill="#5a7a6a"/>
  <path d="M55 150 Q100 168 145 150 L145 180 Q100 195 55 180 Z" fill="#4a6a5a"/>
  <ellipse cx="84" cy="112" rx="5" ry="7" fill="#2a2018"/>
  <ellipse cx="116" cy="112" rx="5" ry="7" fill="#2a2018"/>
  <path d="M76 100 Q85 96 94 100" stroke="#5a4030" stroke-width="2.5" fill="none"/>
  <path d="M106 100 Q115 96 124 100" stroke="#5a4030" stroke-width="2.5" fill="none"/>
  <path d="M97 124 Q100 122 103 124" stroke="#b08060" stroke-width="2" fill="none"/>
  <path d="M94 137 Q100 142 106 137" stroke="#c09070" stroke-width="2.5" fill="none"/>
  <path d="M72 130 Q68 148 70 165" stroke="#8b6045" stroke-width="2" fill="none"/>
  <path d="M128 130 Q132 148 130 165" stroke="#8b6045" stroke-width="2" fill="none"/>
  <circle cx="100" cy="100" r="96" fill="none" stroke="#d4a653" stroke-width="3"/>
</svg>